<svg xmlns="http://www.w3.org/2000/svg" viewBox="0 0 518.73 328.41"><defs><style>.cls-1{fill:#487eb0;}.cls-2,.cls-3{fill:none;stroke:#487eb0;stroke-miterlimit:10;}.cls-2{stroke-width:12px;}</style></defs><title>Asset 1</title><g id="Layer_2" data-name="Layer 2"><g id="Layer_2-2" data-name="Layer 2"><rect class="cls-1" x="78.58" y="22.56" width="197.89" height="269.13" rx="38.95" ry="38.95" transform="translate(151.75 -78.54) rotate(42.25)"/><rect class="cls-2" x="56.17" y="24.76" width="211.49" height="278.89" rx="38.95" ry="38.95" transform="translate(152.46 -66.21) rotate(42.25)"/><path d="M194.52,241.78V184.91h18.6q9.25,0,13.92,3.83t4.67,11.32a11.53,11.53,0,0,1-2.26,7.05,14.7,14.7,0,0,1-6.18,4.75,13.24,13.24,0,0,1,7.29,4.9,14.1,14.1,0,0,1,2.67,8.62q0,7.65-5,12t-14,4.37Zm7.5-32.61h11.33a11.89,11.89,0,0,0,7.87-2.47,8.26,8.26,0,0,0,2.95-6.69c0-3.14-.91-5.41-2.73-6.84s-4.6-2.13-8.32-2.13H202Zm0,6v20.47h12.39q5.24,0,8.26-2.71a9.55,9.55,0,0,0,3-7.49q0-10.26-11.18-10.27Z"/><path d="M237.28,220.26a25.07,25.07,0,0,1,2.44-11.17,18.27,18.27,0,0,1,6.8-7.66,18.47,18.47,0,0,1,9.94-2.69,17.84,17.84,0,0,1,14,6q5.32,6,5.33,15.9v.51a25.09,25.09,0,0,1-2.37,11.07,17.87,17.87,0,0,1-6.75,7.64,18.75,18.75,0,0,1-10.1,2.73,17.8,17.8,0,0,1-13.93-6q-5.33-6-5.33-15.82Zm7.27.86q0,7,3.26,11.29a11,11,0,0,0,17.48-.06q3.24-4.32,3.24-12.09,0-7-3.3-11.27a10.49,10.49,0,0,0-8.77-4.32,10.37,10.37,0,0,0-8.63,4.26Q244.54,213.19,244.55,221.12Z"/><path d="M278.91,220.26a24.93,24.93,0,0,1,2.44-11.17,18.18,18.18,0,0,1,6.79-7.66,18.5,18.5,0,0,1,9.95-2.69,17.82,17.82,0,0,1,14,6q5.34,6,5.33,15.9v.51A25.09,25.09,0,0,1,315,232.19a18,18,0,0,1-6.76,7.64,18.73,18.73,0,0,1-10.1,2.73,17.77,17.77,0,0,1-13.92-6q-5.34-6-5.33-15.82Zm7.26.86q0,7,3.26,11.29a11,11,0,0,0,17.48-.06q3.25-4.32,3.25-12.09,0-7-3.3-11.27a10.51,10.51,0,0,0-8.77-4.32,10.39,10.39,0,0,0-8.64,4.26Q286.18,213.19,286.17,221.12Z"/><path d="M334.24,222.21l-4.53,4.73v14.84h-7.23v-60h7.23v36.29l3.87-4.65,13.16-13.9h8.79l-16.44,17.65,18.36,24.61H349Z"/><path d="M376.88,216.43q-9.64-2.77-14-6.82a13,13,0,0,1-4.39-10,13.77,13.77,0,0,1,5.37-11.11q5.37-4.4,14-4.39a23.3,23.3,0,0,1,10.45,2.26,17.23,17.23,0,0,1,7.11,6.25,16,16,0,0,1,2.52,8.71h-7.54a10.38,10.38,0,0,0-3.28-8.13q-3.29-3-9.26-3c-3.7,0-6.58.81-8.65,2.45a8.15,8.15,0,0,0-3.11,6.78,7.34,7.34,0,0,0,3,5.89q3,2.42,10,4.41a46.21,46.21,0,0,1,11.1,4.4,16.92,16.92,0,0,1,5.93,5.6,14.32,14.32,0,0,1,1.94,7.54,13.28,13.28,0,0,1-5.39,11.07q-5.4,4.17-14.42,4.16a26.74,26.74,0,0,1-10.94-2.24,18.51,18.51,0,0,1-7.83-6.15,15.07,15.07,0,0,1-2.75-8.87h7.54a9.78,9.78,0,0,0,3.81,8.14q3.81,3,10.17,3,5.94,0,9.1-2.42a7.87,7.87,0,0,0,3.17-6.6,7.75,7.75,0,0,0-2.93-6.47Q384.59,218.66,376.88,216.43Z"/><path d="M409.68,204.63a15.36,15.36,0,0,1,12.5-5.89q13.4,0,13.52,15.11v27.93h-7.23v-28c0-3-.72-5.29-2.09-6.75s-3.5-2.19-6.39-2.19a10.43,10.43,0,0,0-6.17,1.87,12.7,12.7,0,0,0-4.14,4.93v30.11h-7.23v-60h7.23Z"/><path d="M460.06,242.56q-8.6,0-14-5.64t-5.39-15.1v-1.33a25.41,25.41,0,0,1,2.4-11.23,18.72,18.72,0,0,1,6.72-7.73,16.92,16.92,0,0,1,9.36-2.79q8.23,0,12.81,5.43t4.57,15.54v3H447.91a15,15,0,0,0,3.65,10.1,11.5,11.5,0,0,0,8.89,3.85,12.49,12.49,0,0,0,6.48-1.57,16.29,16.29,0,0,0,4.65-4.14L476,234.4Q470.68,242.56,460.06,242.56Zm-.9-37.89a9.63,9.63,0,0,0-7.35,3.19q-3,3.18-3.67,8.92h21.17v-.54c-.21-3.68-1.2-6.52-3-8.54A9.06,9.06,0,0,0,459.16,204.67Z"/><path d="M488.75,241.78h-7.23v-60h7.23Z"/><path d="M499.87,241.78V205.1h-6.68v-5.58h6.68v-4.34q0-6.8,3.63-10.51T513.77,181a19,19,0,0,1,5,.66l-.39,5.83a20.21,20.21,0,0,0-3.9-.35,7,7,0,0,0-5.43,2.05,8.33,8.33,0,0,0-1.92,5.9v4.47h9v5.58h-9v36.68Z"/><line class="cls-3" x1="29.92" y1="213.25" x2="132.58" y2="309.92"/></g></g></svg>