<svg xmlns="http://www.w3.org/2000/svg" viewBox="0 0 496.28 536.02"><defs><style>.cls-1{font-size:102.81px;}.cls-1,.cls-4,.cls-6{fill:#fff;}.cls-1,.cls-4{font-family:Roboto-Bold, Roboto;}.cls-2,.cls-4{font-weight:700;}.cls-3{font-family:Roboto-Thin, Roboto;}.cls-4{font-size:120px;}.cls-4,.cls-5,.cls-6{stroke:#fff;}.cls-5{fill:none;stroke-width:8px;}.cls-5,.cls-6{stroke-miterlimit:10;}</style></defs><title>Asset 4</title><g id="Layer_2" data-name="Layer 2"><g id="Layer_1-2" data-name="Layer 1"><text class="cls-1" transform="translate(0 508.16)"><tspan class="cls-2">BOOK</tspan><tspan class="cls-3" x="272.84" y="0">Shelf</tspan></text><text class="cls-4" transform="translate(77.55 274)">BS</text><path class="cls-5" d="M127.05,289v9a10.53,10.53,0,0,0,10.5,10.5h199.5a10.54,10.54,0,0,0,10.5-10.5V14.5A10.54,10.54,0,0,0,337.05,4H137.55a10.53,10.53,0,0,0-10.5,10.5v159"/><path class="cls-6" d="M162.3,396.63c-4.19,1.49-9.3,2.49-12.75,0-5.5-4-4.36-15-5.25-15s.73,11-4.5,15c-3.3,2.51-8.42,1.53-12.75,0v-60H162.3Z"/></g></g></svg>