<svg xmlns="http://www.w3.org/2000/svg" viewBox="0 0 94.5 135.89"><defs><style>.cls-1{font-size:40px;font-family:Roboto-Bold, Roboto;font-weight:700;}.cls-1,.cls-3{fill:#fff;}.cls-1,.cls-2,.cls-3{stroke:#fff;}.cls-2{fill:none;stroke-width:8px;}.cls-2,.cls-3{stroke-miterlimit:10;}</style></defs><title>Asset 2</title><g id="Layer_2" data-name="Layer 2"><g id="Layer_1-2" data-name="Layer 1"><text class="cls-1" transform="translate(0.5 94)">BS</text><path class="cls-2" d="M17,99v3a3.52,3.52,0,0,0,3.5,3.5H87a3.51,3.51,0,0,0,3.5-3.5V7.5A3.51,3.51,0,0,0,87,4H20.5A3.52,3.52,0,0,0,17,7.5v53"/><path class="cls-3" d="M28.75,134.88c-1.4.49-3.1.83-4.25,0-1.83-1.32-1.45-5-1.75-5s.24,3.67-1.5,5c-1.1.83-2.81.51-4.25,0v-20H28.75Z"/></g></g></svg>