<svg xmlns="http://www.w3.org/2000/svg" viewBox="0 0 832 167.84"><defs><style>.cls-1{font-size:149px;}.cls-1,.cls-4{font-family:Roboto-Bold, Roboto;}.cls-2,.cls-4{font-weight:700;}.cls-3{font-family:Roboto-Thin, Roboto;}.cls-4{font-size:40px;}.cls-5{fill:none;stroke:#000;stroke-miterlimit:10;stroke-width:8px;}</style></defs><title>logo new</title><g id="Layer_2" data-name="Layer 2"><g id="Layer_1-2" data-name="Layer 1"><text class="cls-1" transform="translate(112.75 127.46)"><tspan class="cls-2">BOOK</tspan><tspan class="cls-3" x="395.42" y="0">Shelf</tspan></text><text class="cls-4" transform="translate(0 117.58)">BS</text><path class="cls-5" d="M16.5,122.58v3a3.52,3.52,0,0,0,3.5,3.5H86.5a3.51,3.51,0,0,0,3.5-3.5V31.08a3.5,3.5,0,0,0-3.5-3.5H20a3.51,3.51,0,0,0-3.5,3.5v53"/><path d="M28.25,158.45c-1.4.5-3.1.83-4.25,0-1.83-1.32-1.45-5-1.75-5s.24,3.67-1.5,5c-1.1.84-2.81.51-4.25,0v-20H28.25Z"/></g></g></svg>